# xmcd CD database file
#
# Track frame offsets:
#	150
#	14165
#	31620
#	44842
#	62607
#	78412
#	92377
#	109112
#	120682
#	136615
#	150787
#	164280
#	175750
#	190292
#	205795
#
# Disc length: 2961 seconds
#
# Revision: 0
# Processed by: cddbd v1.5.2PL0 Copyright (c) Steve Scherf et al.
# Submitted via: CDex 1.70beta2
#
DISCID=b50b8f0f
DTITLE=TBC - USA - Today's Biggest Country
DYEAR=1900
DGENRE=Country
TTITLE0=If I Didn't Have You - Randy Travis
TTITLE1=What a Crying Shame - The Maverics
TTITLE2=She Don't Know She's Beautiful - Sammy Kershaw
TTITLE3=I Wanna Hold You - Farmer's Daughter
TTITLE4=A Jukebox With A Country Song - Doug Stone
TTITLE5=Love's Looking For Me - One Horse Blue
TTITLE6=Heartaches Are Stealin" - Ian Tyson
TTITLE7=Trouble On the Line - Sawyer Brown
TTITLE8=No Kathleen - Ron Hynes
TTITLE9=Lonve On the Loose, Heart On the Run - McBride and the Ride
TTITLE10=It Sure Is Monday - Mark Chesnutt
TTITLE11=Holdin' Heaven - Tracy Byrd
TTITLE12=If I Were You - Anita Perres
TTITLE13=So Much Like My Dad - George Straight
TTITLE14=True Love - Lyndia Scott
EXTD=
EXTT0=
EXTT1=
EXTT2=
EXTT3=
EXTT4=
EXTT5=
EXTT6=
EXTT7=
EXTT8=
EXTT9=
EXTT10=
EXTT11=
EXTT12=
EXTT13=
EXTT14=
PLAYORDER=
